# xmcd CD database file
#
# Track frame offsets:
#	150
#	27656
#	55258
#	85726
#	111504
#	152542
#
# Disc length: 3247 seconds
#
# Revision: 0
# Processed by: cddbd v1.5.2PL0 Copyright (c) Steve Scherf et al.
# Submitted via: CDex 1.81
#
DISCID=470cad06
DTITLE=Vladislav Sendecki - Like A Bird
DYEAR=2000
DGENRE=New Age
TTITLE0=Sunny Afternoon
TTITLE1=Borrelore
TTITLE2=Like A Bird
TTITLE3=Landscape Of Infinity
TTITLE4=Over The Ocean
TTITLE5=Byond The Time
EXTD=YEAR: 2000
EXTT0=
EXTT1=
EXTT2=
EXTT3=
EXTT4=
EXTT5=
PLAYORDER=
